<?xml version="1.0" encoding="UTF-8"?>
<svg id="Layer_1" data-name="Layer 1" xmlns="http://www.w3.org/2000/svg" viewBox="0 0 180 180">
  <defs>
    <style>
      .cls-1 {
        fill: #fff;
      }

      .cls-2 {
        fill: #c44b2a;
      }
    </style>
  </defs>
  <path class="cls-2" d="M160.4,117.45l-69.09,36.85c-.82.44-1.8.44-2.62,0L19.6,117.45c-1.96-1.05-1.96-3.86,0-4.91l8.62-4.6c.82-.44,1.8-.44,2.62,0l57.85,30.85c.82.44,1.8.44,2.62,0l57.85-30.85c.82-.44,1.8-.44,2.62,0l8.62,4.6c1.96,1.05,1.96,3.86,0,4.91Z"/>
  <path class="cls-2" d="M160.4,92.45l-69.09,36.85c-.82.44-1.8.44-2.62,0L19.6,92.45c-1.96-1.05-1.96-3.86,0-4.91l8.62-4.6c.82-.44,1.8-.44,2.62,0l57.85,30.85c.82.44,1.8.44,2.62,0l57.85-30.85c.82-.44,1.8-.44,2.62,0l8.62,4.6c1.96,1.05,1.96,3.86,0,4.91Z"/>
  <path class="cls-1" d="M47.57,66.37l11.12,5.93c.82.44,1.8.44,2.62,0l57.38-30.6c.82-.44,1.8-.44,2.62,0l39.09,20.85c1.96,1.05,1.96,3.86,0,4.91l-69.09,36.85c-.82.44-1.8.44-2.62,0l-9.09-4.85c-1.96-1.05-1.96-3.86,0-4.91l52.83-28.18c1.1-.58,1.1-2.15,0-2.74l-11.12-5.93c-.82-.44-1.8-.44-2.62,0l-57.38,30.6c-.82.44-1.8.44-2.62,0l-39.09-20.85c-1.96-1.05-1.96-3.86,0-4.91L88.69,25.7c.82-.44,1.8-.44,2.62,0l9.09,4.85c1.96,1.05,1.96,3.86,0,4.91l-52.83,28.18c-1.1.58-1.1,2.15,0,2.74Z"/>
</svg>